<svg height="1454" viewBox="0 0 1455 1454" width="1455" xmlns="http://www.w3.org/2000/svg"><path d="m242.121955 1271.54306c-161.414637-155.62263-242.121955-333.166723-242.121955-532.632266 0-426.220392 331.088142-738.2526508 725-738.2526508 398 0 730 312.0322588 730 738.2526508 0 402.860946-355.96117 714.584656-666.846488 714.584656-128.764387 0-221.780019-48.62333-270.423256-124.33897-17.215795-26.79725-32.562164-69.99861-35.66164-96.1806-2.066318-17.45466-2.066318-75.36861 0-173.74183 0-57.31368 0-130.554487 0-219.722428 1.831384-132.712378 16.013998-308.293787-36.68423-267.819658-15.627519 15.058307-21.917355 30.71365-55.381829 32.145414-33.488831-2.439402-42.906017-38.268524-37.372587-57.544483 19.867033-69.181503 78.288204-124.599856 171.105205-114.596156s128.515232 71.361546 130.968629 154.196171c0 100.160102-2.453397 209.447484-2.453397 222.147295v10.726286c.457498 9.951999-.986556 18.000282 10.749637 11.331671 12.004087-8.150649 22.356919-15.213376 31.058495-21.188183 63.529603-48.074667 219.42783-98.786396 340.415591 21.188183 46.04382 45.658234 102.73509 144.793322 69.72615 297.768418-5.30399 16.03216-1.05629 18.15437 12.7431 6.36663 11.3967-11.34111 167.58798-151.83643 167.58798-417.702513 0-298.024318-261.69566-546.824135-559.53136-546.824135-259.529626 0-556.536871 206.300481-556.536871 569.204232 0 112.748129 40.467009 252.202886 139.538004 361.113816 16.183442 18.56131 28.449193 31.59878 36.797252 39.1124 45.204172 38.81913 51.152689 87.67757 21.117518 123.18289-38.609847 38.89625-79.874496 41.97064-123.793948 9.22316zm547.915778 16.48334c134.824306-2.17433 156.570162-142.05595 157.295024-221.05645 0-116.688809-59.438673-158.000997-148.596682-139.881617-71.761324 14.495505-144.24751 89.147357-152.220991 192.790207-1.449723 17.39461-2.174585 45.66084-.724861 72.47753 3.624309 71.02797 63.062982 97.11988 144.24751 95.67033z" fill="#eb5620"/></svg>